<svg id="Layer_1" data-name="Layer 1" xmlns="http://www.w3.org/2000/svg" viewBox="0 0 146.1 178"><title>icon</title><path d="M158.1,164.2c-38.7,26.1-69.5,20.3-59.7-53.1,7.1-53.3-4.6-56.3-15.3-46.2-13.9,13.2-22.6,47.6-22.9,80.3q1.9,11.8,4.9,23.4c1.6,8-24,16.2-39,4.9-5.2-3.8-9.3-42.6-9.3-95.1,0-43.2,5.7-72.9,10.9-74.2C67-6.5,73.3,10.8,64.8,43.2A233,233,0,0,0,58,82c8.2-22.8,19.9-41.5,33.3-49.8,36.3-22.8,66.5-12.1,60.8,33.3-9.8,81.1-10.6,92.1-1.9,85.8C161.1,143.5,168.2,157.3,158.1,164.2Z" transform="translate(-16.8 -1)"/></svg>